<?xml version="1.0" encoding="utf-8"?>
<!-- Generator: Adobe Illustrator 18.1.1, SVG Export Plug-In . SVG Version: 6.00 Build 0)  -->
<svg version="1.1" id="Layer_1" xmlns="http://www.w3.org/2000/svg" xmlns:xlink="http://www.w3.org/1999/xlink" x="0px" y="0px"
	 viewBox="0 0 1983.6 841.9" enable-background="new 0 0 1983.6 841.9" xml:space="preserve">
<g>
	<path fill="#1B302F" d="M869.9,227.2c16.2,0,28.2,4.8,35.9,14.4c7.7,9.6,11.6,22.5,11.6,38.5v18.9h-22.3V279c0-9.6-2-17.1-5.9-22.4
		c-3.9-5.3-10.2-8-18.8-8c-8.4,0-14.6,2.7-18.6,8c-4,5.3-6,12.8-6,22.4v111.3c0,9.6,2,17.1,6,22.4c4,5.3,10.2,8,18.6,8
		c8.6,0,14.9-2.7,18.8-8c3.9-5.3,5.9-12.8,5.9-22.4v-27.4h22.3v26.2c0,16-3.9,28.9-11.6,38.5c-7.7,9.6-19.7,14.4-35.9,14.4
		c-16,0-27.9-4.8-35.6-14.4c-7.7-9.6-11.6-22.5-11.6-38.5V280.2c0-8,0.9-15.3,2.9-21.8c1.9-6.5,4.8-12.1,8.7-16.7
		c3.9-4.6,8.8-8.2,14.7-10.7C854.9,228.5,861.9,227.2,869.9,227.2z"/>
	<path fill="#1B302F" d="M937,280.2c0-16.2,4-29.1,11.9-38.7c7.9-9.5,20-14.3,36.2-14.3s28.4,4.8,36.4,14.3c8,9.5,12,22.4,12,38.7
		v108.9c0,16-4,28.9-12,38.5c-8,9.6-20.2,14.4-36.4,14.4s-28.3-4.8-36.2-14.4c-7.9-9.6-11.9-22.5-11.9-38.5V280.2z M960.1,390.3
		c0,9.6,2.1,17.1,6.2,22.4c4.1,5.3,10.4,8,18.8,8c8.6,0,14.9-2.7,18.9-8c4-5.3,6-12.8,6-22.4V279c0-9.6-2-17.1-6-22.4
		c-4-5.3-10.3-8-18.9-8c-8.4,0-14.7,2.7-18.8,8c-4.1,5.3-6.2,12.8-6.2,22.4V390.3z"/>
	<path fill="#1B302F" d="M1105.1,229.3c16.4,0,28.5,4.7,36.2,14c7.7,9.3,11.6,22.1,11.6,38.4v106.2c0,16.2-3.9,29-11.6,38.2
		c-7.7,9.2-19.8,13.8-36.2,13.8h-49.3V229.3H1105.1z M1104.8,418.5c8.4,0,14.7-2.6,18.8-7.7c4.1-5.1,6.2-12.5,6.2-22.1V280.5
		c0-9.6-2.1-17-6.2-22.1c-4.1-5.1-10.5-7.7-19.1-7.7h-25.3v167.8H1104.8z"/>
	<path fill="#1B302F" d="M1249.8,322.6v21.1h-51.4v74.9h63.2v21.4h-86.6V229.3h86.6v21.4h-63.2v71.9H1249.8z"/>
	<path fill="#1B302F" d="M1330.1,229.3c16.6,0,28.6,4.1,35.9,12.3c7.3,8.2,11,20.2,11,35.8v17.1c0,11.6-2.1,21.1-6.3,28.3
		c-4.2,7.2-10.8,12.2-19.9,15c9.6,2.8,16.4,8,20.5,15.5c4,7.5,6,17,6,28.4v32.8c0,4.6,0.2,9.1,0.6,13.4c0.4,4.3,1.6,8.3,3.6,11.9
		h-23.8c-1.4-3-2.4-6.3-3-9.8c-0.6-3.5-0.9-8.8-0.9-15.8v-33.1c0-11.8-2.7-20-8-24.5c-5.3-4.5-12.9-6.8-22.7-6.8h-16.5v89.9h-23.5
		V229.3H1330.1z M1324.1,328.6c9.4,0,16.7-2,22-5.9c5.2-3.9,7.8-11.6,7.8-23v-20.2c0-9.6-1.9-16.8-5.6-21.7
		c-3.7-4.8-10-7.2-18.8-7.2h-22.9v77.9H1324.1z"/>
	<path fill="#1B302F" d="M1451,229.3c16.4,0,28.5,4.7,36.2,14c7.7,9.3,11.6,22.1,11.6,38.4v106.2c0,16.2-3.9,29-11.6,38.2
		c-7.7,9.2-19.8,13.8-36.2,13.8h-49.3V229.3H1451z M1450.7,418.5c8.4,0,14.7-2.6,18.8-7.7c4.1-5.1,6.2-12.5,6.2-22.1V280.5
		c0-9.6-2.1-17-6.2-22.1c-4.1-5.1-10.5-7.7-19.1-7.7h-25.3v167.8H1450.7z"/>
	<path fill="#1B302F" d="M1519,280.2c0-16.2,4-29.1,11.9-38.7c7.9-9.5,20-14.3,36.2-14.3s28.4,4.8,36.4,14.3c8,9.5,12,22.4,12,38.7
		v108.9c0,16-4,28.9-12,38.5c-8,9.6-20.2,14.4-36.4,14.4s-28.3-4.8-36.2-14.4c-7.9-9.6-11.9-22.5-11.9-38.5V280.2z M1542.1,390.3
		c0,9.6,2.1,17.1,6.2,22.4c4.1,5.3,10.4,8,18.8,8c8.6,0,14.9-2.7,18.9-8c4-5.3,6-12.8,6-22.4V279c0-9.6-2-17.1-6-22.4
		c-4-5.3-10.3-8-18.9-8c-8.4,0-14.7,2.7-18.8,8c-4.1,5.3-6.2,12.8-6.2,22.4V390.3z"/>
	<path fill="#1B302F" d="M1631.8,418.5c2,0.2,4,0.3,6,0.3c2,0,3.9,0,5.7,0c7.6-0.4,13.6-2.8,18-7.1c4.4-4.3,6.6-11.8,6.6-22.4v-160
		h23.2v158.5c0,9.8-1.2,18-3.5,24.7c-2.3,6.6-5.5,12-9.5,16.1c-4,4.1-8.8,7-14.3,8.7c-5.5,1.7-11.4,2.7-17.6,2.9
		c-2.8,0-5.3,0-7.5,0.2c-2.2,0.1-4.6-0.1-7.2-0.5V418.5z"/>
	<path fill="#1B302F" d="M1712.7,280.2c0-16.2,4-29.1,11.9-38.7c7.9-9.5,20-14.3,36.2-14.3s28.4,4.8,36.4,14.3
		c8,9.5,12,22.4,12,38.7v108.9c0,16-4,28.9-12,38.5c-8,9.6-20.2,14.4-36.4,14.4s-28.3-4.8-36.2-14.4c-7.9-9.6-11.9-22.5-11.9-38.5
		V280.2z M1735.8,390.3c0,9.6,2.1,17.1,6.2,22.4c4.1,5.3,10.4,8,18.8,8c8.6,0,14.9-2.7,18.9-8c4-5.3,6-12.8,6-22.4V279
		c0-9.6-2-17.1-6-22.4c-4-5.3-10.3-8-18.9-8c-8.4,0-14.7,2.7-18.8,8c-4.1,5.3-6.2,12.8-6.2,22.4V390.3z"/>
</g>
<g>
	<path fill="#73B2A1" d="M1124.5,539V553h-31.6v59.4h-15.3V475.1h54.5V489h-39.2v50H1124.5z"/>
	<path fill="#73B2A1" d="M1157.3,584.7l-5.3,27.7h-14.1l26.3-137.3h22.2l26.3,137.3h-15.3l-5.3-27.7H1157.3z M1159.2,571.6h30.6
		l-15.5-79.3L1159.2,571.6z"/>
	<path fill="#73B2A1" d="M1224.6,612.4V475.1h15.3v123.4h39.2v13.9H1224.6z"/>
	<path fill="#73B2A1" d="M1314,552.8l-8,13.5v46.1h-15.3V475.1h15.3v66.3l36.5-66.3h15.5l-34.7,62.6l35.9,74.7h-15.7L1314,552.8z"/>
	<path fill="#73B2A1" d="M1419.8,535.9v13.7h-33.5v48.8h41.2v13.9h-56.5V475.1h56.5V489h-41.2v46.9H1419.8z"/>
	<path fill="#73B2A1" d="M1455.1,612.4h-13.7V475.1h19.4l31.8,99.3v-99.3h13.5v137.3h-15.9l-35.1-111V612.4z"/>
	<path fill="#73B2A1" d="M1552.6,475.1c10.7,0,18.4,2.5,23,7.6c4.6,5,6.9,12.7,6.9,22.9v6.5c0,7.3-1.2,13.2-3.5,17.8
		c-2.4,4.5-6.5,7.7-12.6,9.5c6.7,1.8,11.4,5.3,14.2,10.4c2.8,5.1,4.2,11.4,4.2,19v11.6c0,10.3-2.5,18.3-7.7,23.8
		c-5.1,5.6-13,8.3-23.7,8.3h-31.6V475.1H1552.6z M1548.8,533.3c6.1,0,10.8-1.2,13.8-3.7c3.1-2.5,4.6-7.3,4.6-14.5v-8
		c0-6.1-1.1-10.7-3.4-13.6c-2.3-2.9-6.2-4.4-11.7-4.4h-15.1v44.3H1548.8z M1553.3,598.5c10.9,0,16.3-6.2,16.3-18.6v-12.2
		c0-7.7-1.5-13-4.6-16c-3.1-2.9-7.9-4.4-14.6-4.4h-13.3v51.2H1553.3z"/>
	<path fill="#73B2A1" d="M1647.5,535.9v13.7H1614v48.8h41.2v13.9h-56.5V475.1h56.5V489H1614v46.9H1647.5z"/>
	<path fill="#73B2A1" d="M1699.9,475.1c10.9,0,18.7,2.7,23.4,8c4.8,5.4,7.2,13.1,7.2,23.3v11.2c0,7.6-1.4,13.7-4.1,18.4
		s-7.1,8-12.9,9.8c6.3,1.8,10.7,5.2,13.3,10.1c2.6,4.9,3.9,11.1,3.9,18.5v21.4c0,3,0.1,5.9,0.4,8.7c0.3,2.8,1,5.4,2.4,7.7h-15.5
		c-0.9-2-1.6-4.1-2-6.4c-0.4-2.3-0.6-5.7-0.6-10.3v-21.6c0-7.7-1.7-13-5.2-16c-3.5-2.9-8.4-4.4-14.8-4.4h-10.8v58.7h-15.3V475.1
		H1699.9z M1695.9,539.8c6.1,0,10.9-1.3,14.3-3.8c3.4-2.5,5.1-7.6,5.1-15v-13.1c0-6.3-1.2-11-3.6-14.1c-2.4-3.1-6.5-4.7-12.3-4.7
		h-14.9v50.8H1695.9z"/>
	<path fill="#73B2A1" d="M1776.2,473.7c10.6,0,18.4,3.1,23.4,9.4c5,6.3,7.6,14.6,7.6,25.1V520h-14.5v-12.6c0-6.3-1.3-11.1-3.8-14.6
		c-2.5-3.5-6.6-5.2-12.3-5.2c-5.5,0-9.5,1.7-12.2,5.2c-2.6,3.5-3.9,8.3-3.9,14.6V580c0,6.3,1.3,11.2,3.9,14.6
		c2.6,3.5,6.7,5.2,12.2,5.2c5.6,0,9.7-1.7,12.3-5.2c2.5-3.5,3.8-8.3,3.8-14.6v-27.5h-14.1v-13.7h28.6v40.4c0,10.5-2.5,18.8-7.6,25.1
		c-5,6.3-12.8,9.4-23.4,9.4c-10.5,0-18.2-3.1-23.2-9.4c-5-6.3-7.6-14.6-7.6-25.1v-71c0-5.2,0.6-10,1.9-14.2
		c1.2-4.2,3.1-7.9,5.7-10.9c2.6-3,5.8-5.3,9.6-7C1766.4,474.5,1770.9,473.7,1776.2,473.7z"/>
</g>
<path fill-rule="evenodd" clip-rule="evenodd" fill="#9FD3C7" d="M362.9,599.7c-6.4,24-21,69.8,13.1,56.8c13.4,12.7,21,8.1,31.2,3.5
	c5.8,2.1,34.4,9.2,22.3-45.4"/>
<path fill-rule="evenodd" clip-rule="evenodd" fill="#9FD3C7" d="M525.8,599.7c6.4,24,21,69.8-13.1,56.8c-13.4,12.7-21,8.1-31.2,3.5
	c-5.8,2.1-34.4,9.2-22.3-45.4"/>
<circle fill-rule="evenodd" clip-rule="evenodd" fill="#73B2A1" cx="444.3" cy="364.4" r="251.6"/>
<ellipse fill-rule="evenodd" clip-rule="evenodd" fill="#EBF2F0" cx="369.9" cy="258.7" rx="103.2" ry="106.5"/>
<ellipse fill-rule="evenodd" clip-rule="evenodd" fill="#EBF2F0" cx="521.3" cy="258.7" rx="103.2" ry="106.5"/>
<circle fill-rule="evenodd" clip-rule="evenodd" fill="#73B2A1" cx="361.6" cy="267.5" r="44.7"/>
<circle fill-rule="evenodd" clip-rule="evenodd" fill="#1B302F" cx="361.6" cy="267.5" r="34.6"/>
<path fill-rule="evenodd" clip-rule="evenodd" fill="#295254" d="M444.3,616c31.8,0,71.8-13.2,90.2-42.9l12.5,6.9
	c0,0,14.7-22.6,17-50.9l14.3,2.4c0,0,4.1-16.5-3.6-48.4l13.1-3c0,0-4.3-23.8-20.7-44.2l11.7-4.5c0,0-14.5-27.5-41.1-42.8l9.3-10.2
	c0,0-38.7-34.1-102.7-34.1s-102.7,34.1-102.7,34.1l9.3,10.2c-26.6,15.4-41.1,42.8-41.1,42.8l11.7,4.5
	c-16.3,20.5-20.7,44.2-20.7,44.2l13.1,3c-7.7,31.9-3.6,48.4-3.6,48.4l14.3-2.4c2.3,28.3,17,50.9,17,50.9l12.5-6.9
	C372.6,602.9,412.6,616,444.3,616"/>
<path fill="#9FD3C7" d="M444.3,364.4l31.9-46.4c-9.1-6.2-20-9.9-31.9-9.9c-11.8,0-22.8,3.7-31.9,9.9L444.3,364.4"/>
<path fill-rule="evenodd" clip-rule="evenodd" fill="#CF6E14" d="M742.6,503.5c1.4,5.5-2.3,11.2-8.4,12.8l-249.8,65.3
	c-6,1.6-12.1-1.6-13.5-7l-44.3-169.4c-1.4-5.5,2.3-11.2,8.4-12.8L684.7,327c6-1.6,12.1,1.6,13.5,7L742.6,503.5z"/>
<path fill-rule="evenodd" clip-rule="evenodd" fill="#F4E9E1" d="M672.8,337.2c2-0.5,4.1,0.5,4.5,2.3l44.3,169.4
	c0.5,1.8-0.8,3.7-2.8,4.3L482,575.1c-2,0.5-4.1-0.5-4.5-2.3l-44.3-169.4c-0.5-1.8,0.8-3.7,2.8-4.3L672.8,337.2z"/>
<path fill-rule="evenodd" clip-rule="evenodd" fill="#EAA772" d="M534.7,408.3c28.4-7.4,57.4,9.3,65.2,37.5c0.1,0.3,0.2,0.5,0.2,0.8
	c0.1,0.3,0.1,0.5,0.2,0.8c3.2,14.1-5.3,28.2-19.4,31.9c-14.3,3.7-29-4.8-32.7-19.2c-3.7-14.3-18.4-22.9-32.7-19.2
	c-14.1,3.7-22.6,17.8-19.4,31.9C489.3,444.6,506.4,415.8,534.7,408.3z"/>
<path fill-rule="evenodd" clip-rule="evenodd" fill="#CF6E14" d="M515.6,441.1c14.3-3.7,29,4.8,32.7,19.2
	c3.7,14.3,18.4,22.9,32.7,19.2c14.1-3.7,22.6-17.9,19.4-31.9c7,28.4-10.1,57.2-38.5,64.6c-28.4,7.4-57.4-9.3-65.2-37.5
	c-0.1-0.3-0.2-0.5-0.2-0.8c-0.1-0.3-0.1-0.5-0.2-0.8C493,458.9,501.5,444.7,515.6,441.1z"/>
<text transform="matrix(-0.2935 -0.9559 0.9559 -0.2935 540.4388 472.3079)" fill="#EAA772" font-family="'BebasNeueBold'" font-size="42.9455">0</text>
<text transform="matrix(-0.2935 -0.9559 0.9559 -0.2935 590.4075 458.4281)" fill="#CF6E14" font-family="'BebasNeueBold'" font-size="42.9455">1</text>
<path fill-rule="evenodd" clip-rule="evenodd" fill="#CDE6DF" d="M601.1,589.7c121.7-30.3,138.1-199.2,121.2-247.1
	c-16.5-46.4-77.9-57-96.2-9.6C603.8,390.7,661.8,439.4,601.1,589.7z"/>
<path fill-rule="evenodd" clip-rule="evenodd" fill="#73B2A1" d="M650.1,278.3c39.3,10.1,25.2,80.3,25.2,80.3s-10.8-42.4-32.8-49.4"
	/>
<path fill-rule="evenodd" clip-rule="evenodd" fill="#73B2A1" d="M626.3,298.1c40,6.6,32,77.8,32,77.8s-14.4-41.3-37-46.3"/>
<path fill-rule="evenodd" clip-rule="evenodd" fill="#73B2A1" d="M609.5,316.2c39.4,9.5,24.8,79.5,24.8,79.5s-9.9-41.8-32-48.4"/>
<path fill-rule="evenodd" clip-rule="evenodd" fill="#CDE6DF" d="M287.1,589.7c-121.7-30.3-138.1-199.2-121.2-247.1
	c16.5-46.4,77.9-57,96.2-9.6C284.3,390.7,226.3,439.4,287.1,589.7z"/>
<path fill-rule="evenodd" clip-rule="evenodd" fill="#73B2A1" d="M238,278.3c-39.3,10.1-25.2,80.3-25.2,80.3s10.8-42.4,32.8-49.4"/>
<path fill-rule="evenodd" clip-rule="evenodd" fill="#73B2A1" d="M261.8,298.1c-40,6.6-32,77.8-32,77.8s14.4-41.3,37-46.3"/>
<path fill-rule="evenodd" clip-rule="evenodd" fill="#73B2A1" d="M278.7,316.2c-39.4,9.5-24.8,79.5-24.8,79.5s9.9-41.8,32-48.4"/>
<circle fill-rule="evenodd" clip-rule="evenodd" fill="#FFFFFF" cx="374.7" cy="257.3" r="10.2"/>
<circle fill-rule="evenodd" clip-rule="evenodd" fill="#73B2A1" cx="516.1" cy="267.5" r="44.7"/>
<circle fill-rule="evenodd" clip-rule="evenodd" fill="#1B302F" cx="516.1" cy="267.5" r="34.6"/>
<circle fill-rule="evenodd" clip-rule="evenodd" fill="#FFFFFF" cx="529.2" cy="257.3" r="10.2"/>
<path fill-rule="evenodd" clip-rule="evenodd" fill="#295254" d="M430.7,172.3c-42.5-15-104.6,0-104.6,0
	c12.3-10.9,40.1-16.3,40.1-16.3c-20.7-9.5-77.8,4.3-77.8,4.3c6.9-7.7,43.3-16.4,43.3-16.4c-17.9-6.6-77.1,6.7-77.1,6.7
	S361,99.2,430.7,172.3z"/>
<path fill-rule="evenodd" clip-rule="evenodd" fill="#295254" d="M459.5,173.2c42.5-15,104.6,0,104.6,0
	c-12.3-10.9-40.1-16.3-40.1-16.3c20.7-9.5,77.8,4.3,77.8,4.3c-6.9-7.7-43.3-16.4-43.3-16.4c17.9-6.6,77.1,6.7,77.1,6.7
	S529.2,100.2,459.5,173.2z"/>
</svg>
